<mxfile host="app.diagrams.net" modified="2023-11-02T09:01:20.687Z" agent="Mozilla/5.0 (Windows NT 10.0; Win64; x64) AppleWebKit/537.36 (KHTML, like Gecko) Chrome/118.0.0.0 Safari/537.36" etag="fkYkTBrmFM24UJkKjKG0" version="22.0.8" type="device">
  <diagram name="Page-1" id="DOSUUptkT1a2FifPInr-">
    <mxGraphModel dx="1411" dy="790" grid="1" gridSize="10" guides="1" tooltips="1" connect="1" arrows="1" fold="1" page="1" pageScale="1" pageWidth="827" pageHeight="1169" math="0" shadow="0">
      <root>
        <mxCell id="0" />
        <mxCell id="1" parent="0" />
        <mxCell id="XoCqQje2v1FozqmzTJGF-4" value="User" style="shape=umlActor;verticalLabelPosition=bottom;verticalAlign=top;html=1;outlineConnect=0;" vertex="1" parent="1">
          <mxGeometry x="100" y="220" width="30" height="60" as="geometry" />
        </mxCell>
        <mxCell id="XoCqQje2v1FozqmzTJGF-17" style="edgeStyle=orthogonalEdgeStyle;rounded=0;orthogonalLoop=1;jettySize=auto;html=1;" edge="1" parent="1" source="XoCqQje2v1FozqmzTJGF-10">
          <mxGeometry relative="1" as="geometry">
            <mxPoint x="115" y="340" as="targetPoint" />
          </mxGeometry>
        </mxCell>
        <mxCell id="XoCqQje2v1FozqmzTJGF-10" value="Admin" style="shape=umlActor;verticalLabelPosition=bottom;verticalAlign=top;html=1;outlineConnect=0;" vertex="1" parent="1">
          <mxGeometry x="100" y="450" width="30" height="50" as="geometry" />
        </mxCell>
        <mxCell id="XoCqQje2v1FozqmzTJGF-13" value="" style="swimlane;startSize=0;" vertex="1" parent="1">
          <mxGeometry x="180" y="110" width="500" height="630" as="geometry" />
        </mxCell>
        <mxCell id="XoCqQje2v1FozqmzTJGF-15" value="&lt;b&gt;&lt;font style=&quot;font-size: 14px;&quot;&gt;CookBook&lt;/font&gt;&lt;/b&gt;" style="text;html=1;align=center;verticalAlign=middle;resizable=0;points=[];autosize=1;strokeColor=none;fillColor=none;" vertex="1" parent="XoCqQje2v1FozqmzTJGF-13">
          <mxGeometry x="165" y="10" width="90" height="30" as="geometry" />
        </mxCell>
        <mxCell id="XoCqQje2v1FozqmzTJGF-18" value="consulter les recettes" style="ellipse;whiteSpace=wrap;html=1;" vertex="1" parent="XoCqQje2v1FozqmzTJGF-13">
          <mxGeometry x="110" y="110" width="120" height="80" as="geometry" />
        </mxCell>
        <mxCell id="XoCqQje2v1FozqmzTJGF-19" value="ajouter recette" style="ellipse;whiteSpace=wrap;html=1;" vertex="1" parent="XoCqQje2v1FozqmzTJGF-13">
          <mxGeometry x="110" y="230" width="120" height="80" as="geometry" />
        </mxCell>
        <mxCell id="XoCqQje2v1FozqmzTJGF-20" value="Ã©diter recette" style="ellipse;whiteSpace=wrap;html=1;" vertex="1" parent="XoCqQje2v1FozqmzTJGF-13">
          <mxGeometry x="114" y="350" width="120" height="80" as="geometry" />
        </mxCell>
        <mxCell id="XoCqQje2v1FozqmzTJGF-21" value="supprimer recette" style="ellipse;whiteSpace=wrap;html=1;" vertex="1" parent="XoCqQje2v1FozqmzTJGF-13">
          <mxGeometry x="110" y="470" width="120" height="80" as="geometry" />
        </mxCell>
        <mxCell id="XoCqQje2v1FozqmzTJGF-22" value="identification" style="ellipse;whiteSpace=wrap;html=1;" vertex="1" parent="XoCqQje2v1FozqmzTJGF-13">
          <mxGeometry x="340" y="320" width="120" height="80" as="geometry" />
        </mxCell>
        <mxCell id="XoCqQje2v1FozqmzTJGF-28" value="" style="endArrow=classic;html=1;rounded=0;entryX=0.1;entryY=0.213;entryDx=0;entryDy=0;entryPerimeter=0;exitX=0.967;exitY=0.763;exitDx=0;exitDy=0;exitPerimeter=0;dashed=1;" edge="1" parent="XoCqQje2v1FozqmzTJGF-13" source="XoCqQje2v1FozqmzTJGF-19" target="XoCqQje2v1FozqmzTJGF-22">
          <mxGeometry width="50" height="50" relative="1" as="geometry">
            <mxPoint x="200" y="320" as="sourcePoint" />
            <mxPoint x="250" y="270" as="targetPoint" />
          </mxGeometry>
        </mxCell>
        <mxCell id="XoCqQje2v1FozqmzTJGF-30" value="&amp;lt;include&amp;gt;" style="edgeLabel;html=1;align=center;verticalAlign=middle;resizable=0;points=[];" vertex="1" connectable="0" parent="XoCqQje2v1FozqmzTJGF-28">
          <mxGeometry x="-0.1869" y="2" relative="1" as="geometry">
            <mxPoint as="offset" />
          </mxGeometry>
        </mxCell>
        <mxCell id="XoCqQje2v1FozqmzTJGF-31" value="" style="endArrow=classic;html=1;rounded=0;entryX=0;entryY=0.5;entryDx=0;entryDy=0;exitX=1;exitY=0.5;exitDx=0;exitDy=0;dashed=1;" edge="1" parent="XoCqQje2v1FozqmzTJGF-13" source="XoCqQje2v1FozqmzTJGF-20" target="XoCqQje2v1FozqmzTJGF-22">
          <mxGeometry width="50" height="50" relative="1" as="geometry">
            <mxPoint x="236" y="301" as="sourcePoint" />
            <mxPoint x="330" y="340" as="targetPoint" />
          </mxGeometry>
        </mxCell>
        <mxCell id="XoCqQje2v1FozqmzTJGF-32" value="&amp;lt;include&amp;gt;" style="edgeLabel;html=1;align=center;verticalAlign=middle;resizable=0;points=[];" vertex="1" connectable="0" parent="XoCqQje2v1FozqmzTJGF-31">
          <mxGeometry x="-0.1869" y="2" relative="1" as="geometry">
            <mxPoint as="offset" />
          </mxGeometry>
        </mxCell>
        <mxCell id="XoCqQje2v1FozqmzTJGF-33" value="" style="endArrow=classic;html=1;rounded=0;entryX=0;entryY=1;entryDx=0;entryDy=0;dashed=1;" edge="1" parent="XoCqQje2v1FozqmzTJGF-13" source="XoCqQje2v1FozqmzTJGF-21" target="XoCqQje2v1FozqmzTJGF-22">
          <mxGeometry width="50" height="50" relative="1" as="geometry">
            <mxPoint x="240" y="390" as="sourcePoint" />
            <mxPoint x="350" y="370" as="targetPoint" />
          </mxGeometry>
        </mxCell>
        <mxCell id="XoCqQje2v1FozqmzTJGF-34" value="&amp;lt;include&amp;gt;" style="edgeLabel;html=1;align=center;verticalAlign=middle;resizable=0;points=[];" vertex="1" connectable="0" parent="XoCqQje2v1FozqmzTJGF-33">
          <mxGeometry x="-0.1869" y="2" relative="1" as="geometry">
            <mxPoint as="offset" />
          </mxGeometry>
        </mxCell>
        <mxCell id="XoCqQje2v1FozqmzTJGF-38" value="" style="endArrow=none;html=1;rounded=0;entryX=0;entryY=0.5;entryDx=0;entryDy=0;" edge="1" parent="1" source="XoCqQje2v1FozqmzTJGF-4" target="XoCqQje2v1FozqmzTJGF-18">
          <mxGeometry width="50" height="50" relative="1" as="geometry">
            <mxPoint x="380" y="430" as="sourcePoint" />
            <mxPoint x="430" y="380" as="targetPoint" />
          </mxGeometry>
        </mxCell>
        <mxCell id="XoCqQje2v1FozqmzTJGF-39" value="" style="endArrow=none;html=1;rounded=0;entryX=0.017;entryY=0.613;entryDx=0;entryDy=0;entryPerimeter=0;exitX=1;exitY=0.3333333333333333;exitDx=0;exitDy=0;exitPerimeter=0;" edge="1" parent="1" source="XoCqQje2v1FozqmzTJGF-10" target="XoCqQje2v1FozqmzTJGF-19">
          <mxGeometry width="50" height="50" relative="1" as="geometry">
            <mxPoint x="380" y="430" as="sourcePoint" />
            <mxPoint x="430" y="380" as="targetPoint" />
          </mxGeometry>
        </mxCell>
        <mxCell id="XoCqQje2v1FozqmzTJGF-40" value="" style="endArrow=none;html=1;rounded=0;entryX=0;entryY=0.5;entryDx=0;entryDy=0;" edge="1" parent="1" target="XoCqQje2v1FozqmzTJGF-20">
          <mxGeometry width="50" height="50" relative="1" as="geometry">
            <mxPoint x="130" y="470" as="sourcePoint" />
            <mxPoint x="302" y="399" as="targetPoint" />
          </mxGeometry>
        </mxCell>
        <mxCell id="XoCqQje2v1FozqmzTJGF-41" value="" style="endArrow=none;html=1;rounded=0;entryX=-0.008;entryY=0.413;entryDx=0;entryDy=0;entryPerimeter=0;" edge="1" parent="1" source="XoCqQje2v1FozqmzTJGF-10" target="XoCqQje2v1FozqmzTJGF-21">
          <mxGeometry width="50" height="50" relative="1" as="geometry">
            <mxPoint x="140" y="480" as="sourcePoint" />
            <mxPoint x="304" y="510" as="targetPoint" />
          </mxGeometry>
        </mxCell>
      </root>
    </mxGraphModel>
  </diagram>
</mxfile>
